:SAMPLES-PER-SECOND 30
:FULLY-SPECIFIED
:DEGREES
141
root  46.5357 38.6565 2.92065 -83.7795 85.78 -80.0378
RightUpLeg  6.93082 1.70929 9.35353
RightLeg  14.1572 6.43442 -1.63834
RightFoot  -14.0313 -0.0460746 -5.53945
RightToes  5.82075e-010 -1.59028e-015 9.93923e-017
Spine  -0.39235 3.2495 14.4704
Spine1  12.3335 5.38721 -6.5267
HEad  -19.4012 -4.85567 4.482
LeftShoulder1  9.93923e-017 0 1.22299e-017
LeftArm  10.0143 55.6011 -57.7905
LeftForeArm  -7.10736 -9.49752 -4.52768
LeftHand  1.00723 7.18849 -6.10077
RightShoulder  1.98785e-016 -4.96962e-017 1.55301e-017
RightArm  21.331 -7.47115 81.5188
RightForeArm  -42.8599 31.126 -27.7141
RightHand  1.67346 -12.4617 -9.58199
LeftUpLeg  -25.9046 -0.903657 4.17185
LeftLeg  27.1741 -10.0761 -0.244438
LeftFoot  4.05175 0.758819 -4.86053
LeftToes  1.8463e-010 2.29954e-012 -3.51709e-011
142
root  48.1268 38.6212 2.92202 -71.7613 86.0235 -68.4561
RightUpLeg  10.0671 1.46679 8.56367
RightLeg  12.0863 7.10308 -1.30998
RightFoot  -14.4185 -0.0623987 -5.29946
RightToes  5.82075e-010 -1.59028e-015 9.93923e-017
Spine  -0.860926 4.00664 14.4919
Spine1  13.0219 6.37489 -7.93731
HEad  -20.0203 -5.44851 4.83321
LeftShoulder1  9.93923e-017 0 1.22299e-017
LeftArm  6.08103 56.3997 -54.2759
LeftForeArm  -4.55086 -7.20357 -4.76195
LeftHand  1.03438 7.47463 -5.50706
RightShoulder  1.98785e-016 -4.96962e-017 1.55301e-017
RightArm  19.982 -3.78505 79.9695
RightForeArm  -41.1595 32.2745 -28.7033
RightHand  1.72552 -12.6043 -10.0478
LeftUpLeg  -26.0146 0.455154 3.29253
LeftLeg  13.7335 -10.1416 -1.10499
LeftFoot  3.7026 0.70645 -4.59455
LeftToes  1.8463e-010 2.29954e-012 -3.51709e-011
143
root  49.8468 38.3946 2.87076 -62.2321 85.803 -59.2019
RightUpLeg  12.7865 1.17913 8.00323
RightLeg  11.6521 7.8552 -1.17928
RightFoot  -15.2204 -0.0724029 -3.96465
RightToes  5.82075e-010 -1.59028e-015 9.93923e-017
Spine  -1.10739 4.41286 14.7868
Spine1  13.5675 7.06067 -9.00295
HEad  -20.4543 -5.63741 5.25141
LeftShoulder1  9.93923e-017 0 1.22299e-017
LeftArm  1.29268 56.8426 -52.0355
LeftForeArm  -3.3937 -4.40952 -4.7934
LeftHand  1.04872 7.56854 -3.93286
RightShoulder  1.98785e-016 -4.96962e-017 1.55301e-017
RightArm  18.5027 -1.07475 79.1954
RightForeArm  -40.1012 32.8377 -29.2157
RightHand  1.76308 -12.6389 -10.5961
LeftUpLeg  -27.4993 -2.09714 3.51248
LeftLeg  6.0274 -6.66826 0.192428
LeftFoot  0.131717 0.681238 -5.79995
LeftToes  1.8463e-010 2.29954e-012 -3.51709e-011
144
root  51.6236 38.117 2.76714 -56.1563 85.5885 -53.2939
RightUpLeg  15.2888 1.24174 7.5388
RightLeg  12.0442 8.61237 -1.24631
RightFoot  -15.2026 -0.0441133 -2.37022
RightToes  5.82075e-010 -1.59028e-015 9.93923e-017
Spine  -1.11021 4.42028 14.916
Spine1  14.1038 7.45853 -9.96958
HEad  -20.9209 -5.4834 5.66445
LeftShoulder1  9.93923e-017 0 1.22299e-017
LeftArm  -2.45373 56.8908 -51.3128
LeftForeArm  -4.56858 -2.09021 -4.59848
LeftHand  1.05548 7.56523 -2.02892
RightShoulder  1.98785e-016 -4.96962e-017 1.55301e-017
RightArm  16.6495 0.341383 79.2393
RightForeArm  -39.5743 33.0224 -29.3977
RightHand  1.80832 -12.7003 -11.1776
LeftUpLeg  -29.2373 -3.57407 3.32532
LeftLeg  4.57624 -4.56939 1.39176
LeftFoot  -4.21063 0.485339 -6.14771
LeftToes  1.8463e-010 2.29954e-012 -3.51709e-011
145
root  53.4943 37.8254 2.619 -46.6899 85.5782 -44.1979
RightUpLeg  17.2199 1.99635 6.6859
RightLeg  13.4188 8.93208 -1.23899
RightFoot  -14.7054 -0.00253926 -0.370733
RightToes  5.82075e-010 -1.59028e-015 9.93923e-017
Spine  -1.42452 4.44991 14.555
Spine1  14.6815 7.88306 -10.9959
HEad  -21.4231 -5.24594 6.20672
LeftShoulder1  9.93923e-017 0 1.22299e-017
LeftArm  -5.50776 56.4342 -51.9369
LeftForeArm  -5.84066 -1.24507 -4.13597
LeftHand  1.06461 7.59135 -0.682915
RightShoulder  1.98785e-016 -4.96962e-017 1.55301e-017
RightArm  14.6935 0.0243379 79.8496
RightForeArm  -39.8355 33.1258 -29.4626
RightHand  1.85188 -12.7731 -11.6796
LeftUpLeg  -30.1016 -3.6855 2.88882
LeftLeg  7.06893 -3.37049 1.31238
LeftFoot  -4.99493 0.323037 -4.48988
LeftToes  1.8463e-010 2.29954e-012 -3.51709e-011
146
root  55.486 37.5352 2.45144 -25.6217 85.4233 -23.7294
RightUpLeg  18.1831 3.25353 4.4644
RightLeg  16.2552 8.83017 -0.50927
RightFoot  -13.5743 0.0208484 3.26873
RightToes  5.82075e-010 -1.59028e-015 9.93923e-017
Spine  -2.09668 4.81202 13.1528
Spine1  15.0256 8.51225 -11.986
HEad  -21.7585 -5.11805 6.96346
LeftShoulder1  9.93923e-017 0 1.22299e-017
LeftArm  -7.94522 55.7309 -53.5228
LeftForeArm  -6.20798 -1.11012 -3.81198
LeftHand  1.06893 7.60574 -0.162798
RightShoulder  1.98785e-016 -4.96962e-017 1.55301e-017
RightArm  13.345 -2.30671 80.9443
RightForeArm  -40.6254 33.1335 -29.4165
RightHand  1.86573 -12.7531 -11.9867
LeftUpLeg  -29.9579 -3.01398 1.75173
LeftLeg  10.4246 -2.44622 1.01954
LeftFoot  -0.321645 0.233261 -2.13951
LeftToes  1.8463e-010 2.29954e-012 -3.51709e-011
147
root  57.5731 37.2387 2.27141 -2.62903 84.7262 -1.10333
RightUpLeg  17.8617 2.31871 0.368196
RightLeg  21.4548 10.6737 0.65137
RightFoot  -9.5423 -0.236957 7.16949
RightToes  5.82075e-010 -1.59028e-015 9.93923e-017
Spine  -2.36488 5.102 10.9232
Spine1  14.6143 8.89722 -12.7134
HEad  -21.7839 -5.06257 7.63161
LeftShoulder1  9.93923e-017 0 1.22299e-017
LeftArm  -9.6343 54.8675 -55.9868
LeftForeArm  -6.31256 -1.14955 -3.91582
LeftHand  1.07773 7.68172 -0.67792
RightShoulder  1.98785e-016 -4.96962e-017 1.55301e-017
RightArm  12.9718 -6.37648 82.734
RightForeArm  -41.1703 32.5422 -28.9147
RightHand  1.84069 -12.6076 -12.0648
LeftUpLeg  -30.146 -2.93974 0.161141
LeftLeg  15.4889 -1.68072 1.83288
LeftFoot  4.9825 0.171232 -0.970748
LeftToes  1.8463e-010 2.29954e-012 -3.51709e-011
